<?xml version="1.0" encoding="UTF-8"?>
<svg id="Capa_2" xmlns="http://www.w3.org/2000/svg" viewBox="160 0 441.99 300" opacity="0.42">
  <defs>
    <style>
      .cls-1 {
        fill: #43c2ff;
      }
    </style>
  </defs>
  <g id="Layer_1">
    <g>
      <g>
        <polygon class="cls-1" points="297.75 361.41 244.29 254.49 299.27 142.95 408.5 361.41 297.75 361.41"/>
        <path class="cls-1" d="M0,361.41l3.98-7.97L172.89,20.18C179.14,7.68,191.57,0,205.39,0s26.24,7.68,32.42,20.04l20.64,41.28-116.79,237-21.86,45.04c-2.33,4.66-6.09,8.97-10.73,12.17-5.59,3.85-12.1,5.89-18.83,5.89H0Z"/>
        <rect class="cls-1" x="152.43" y="322.65" width="103.64" height="21.33"/>
      </g>
      <g>
        <path class="cls-1" d="M427.17,351.71h-2.92v-1.06h7.11v1.06h-2.94v8.56h-1.26v-8.56Z"/>
        <path class="cls-1" d="M440.53,356.04c-.07-1.34-.16-2.95-.14-4.15h-.04c-.33,1.13-.73,2.32-1.21,3.65l-1.7,4.66h-.94l-1.55-4.58c-.46-1.36-.84-2.6-1.11-3.74h-.03c-.03,1.2-.1,2.81-.18,4.25l-.26,4.12h-1.18l.67-9.61h1.58l1.64,4.65c.4,1.18.73,2.24.97,3.24h.04c.24-.97.59-2.02,1.01-3.24l1.71-4.65h1.58l.6,9.61h-1.21l-.24-4.22Z"/>
      </g>
    </g>
  </g>
</svg>